<svg xmlns="http://www.w3.org/2000/svg" style="enable-background:new -439 191.1 400.9 419.9;" viewBox="-439 191.1 400.9 419.9" x="0px" y="0px" width="100%" height="100%" xmlns:xml="http://www.w3.org/XML/1998/namespace" xml:space="preserve" xmlns:xlink="http://www.w3.org/1999/xlink" version="1.1" xmlns:svg="http://www.w3.org/2000/svg" xmlns:xml="http://www.w3.org/XML/1998/namespace">
<path title="" class="area excluded" id="_1" d="M -73.4 386 c -2.2 -2.4 -3.4 -2.9 -5.5 -2.5 c -3 0.6 -5.8 -1.2 -8.5 -5.5 c -2.6 -4.2 -4.8 -4.3 -11.3 -0.3 c -3.2 1.9 -6.1 3.5 -6.5 3.5 c -0.3 0 -1.6 -1.8 -2.9 -4 l -2.2 -4 l 3.6 -1.7 c 2 -0.9 3.6 -2.4 3.6 -3.4 c 0 -2.3 -3.2 -5 -5.9 -5 c -3.7 0 -11.9 -5.2 -13.2 -8.3 c -0.6 -1.5 -2 -3.9 -3.1 -5.2 l -1.9 -2.4 l -3.7 1.9 c -3.4 1.7 -4 1.8 -6.5 0.4 c -1.8 -1 -4.1 -1.3 -6.2 -0.9 c -3.1 0.6 -3.5 0.4 -5.3 -3.2 c -1.1 -2.1 -3.1 -4.9 -4.5 -6.2 c -1.4 -1.3 -2.3 -2.8 -2 -3.3 s -0.6 -2.7 -2 -4.8 c -2.2 -3.3 -2.4 -4.3 -1.6 -6.6 c 1.4 -3.8 0.3 -6.4 -3.6 -8 c -1.9 -0.8 -3.4 -1.7 -3.4 -2 c 0 -1.1 2.8 -3.3 3.4 -2.7 c 0.6 0.6 1 -1.2 0.7 -3 c -0.1 -0.7 0.7 -1 4.3 -1.1 c 1.1 -0.1 2.1 -0.6 2.3 -1.2 c 0.5 -1.6 -2.5 -2.6 -4.5 -1.5 c -2.1 1.1 -5.7 -0.2 -6.5 -2.4 c -0.3 -0.9 -1.1 -1.4 -1.6 -1 c -1.6 1 -1.2 -0.8 2 -10.5 c 3.3 -9.9 3.5 -12.1 1.9 -16.9 c -0.8 -2.3 -2.4 -3.9 -5.9 -5.6 c -3.8 -1.9 -4.7 -2.8 -4.3 -4.4 c 0.4 -1.3 -0.6 -3.1 -3.1 -5.5 c -2 -2 -4 -3.6 -4.6 -3.6 s -1.3 -1.3 -1.7 -3 c -0.3 -1.7 -1 -3 -1.6 -3 s -0.6 -0.5 0.1 -1.3 c 0.8 -1 0 -2.4 -3.8 -6.1 c -4.4 -4.4 -5 -5.4 -5.6 -10.7 c -0.6 -5.1 -1 -6.1 -3.5 -7.4 c -1.6 -0.8 -3.6 -1.5 -4.4 -1.5 c -0.9 0 -1.8 -1.2 -2.2 -3 c -0.3 -1.7 -0.9 -3 -1.4 -3 c -0.9 0 2.2 -9.4 3.3 -9.8 c 0.4 -0.2 0.8 -0.8 0.8 -1.3 s 0.7 -1.7 1.6 -2.6 c 1.3 -1.3 1.8 -1.3 2.4 -0.3 c 0.5 0.8 1.7 1.1 3.4 0.6 c 2 -0.5 2.6 -0.3 2.6 1 c 0 1.5 0.2 1.5 1.8 0.2 c 3.8 -3.2 8.1 -4.1 16 -3.3 c 8.4 0.8 16.8 1.5 19.3 1.6 c 0.9 0 3 1.3 4.8 2.9 c 4.9 4.5 4.2 11.3 -1.6 16.8 c -2.2 2 -8.2 3.5 -19.3 4.7 c -0.8 0.1 -2 0.5 -2.7 0.9 s -3.1 0.5 -5.5 0.1 l -4.3 -0.6 l 4 2.6 c 2.2 1.4 6.4 3.2 9.2 4.1 c 4.2 1.2 5.2 2 5.2 3.6 c 0 3.3 8 11.7 11.3 11.8 c 0.4 0 0.5 -0.5 0.1 -1.1 c -0.5 -0.8 -0.2 -0.9 1.2 -0.3 c 1.1 0.5 3.5 1 5.4 1.2 c 2.7 0.3 3.8 0 4.8 -1.7 c 1.8 -3 -0.3 -6.4 -3.8 -5.7 c -3.6 0.7 -6.3 -0.7 -6.5 -3.2 c -0.1 -1.6 0.4 -2.2 2.1 -2.2 c 1.2 0 2.8 0.7 3.4 1.5 c 1.1 1.3 1.4 1.3 2.7 0 c 0.8 -0.8 2.5 -1.5 3.8 -1.5 s 2.5 -0.5 2.7 -1.1 s 2.2 -1.2 4.3 -1.3 c 2.2 -0.1 5.1 -0.6 6.4 -1 c 2.3 -0.7 2.3 -0.9 0.6 -2.1 c -1.3 -0.9 -2.4 -1 -3.7 -0.3 s -3.2 0.6 -6.4 -0.5 c -2.5 -0.8 -5.2 -1.5 -6.1 -1.5 c -1.3 0 -1.4 -0.7 -0.9 -3.8 c 0.4 -2.1 1.3 -4.8 2.1 -6 c 0.9 -1.3 1.2 -3.3 0.8 -4.7 c -0.5 -2.1 -0.2 -2.7 2.2 -3.5 c 1.5 -0.6 3.3 -0.8 4 -0.6 c 1.9 0.7 2.6 -2.3 1.4 -6.1 c -1.2 -3.5 -4.2 -5.9 -6.1 -4.8 c -0.7 0.4 -0.9 -0.2 -0.7 -1.7 c 0.3 -2 0.9 -2.3 3.8 -2.3 c 1.9 0.1 4.3 0.4 5.2 0.8 c 1.2 0.5 2.5 -0.1 4.1 -1.9 l 2.4 -2.6 h 43.1 h 43.1 v 98 c 0 85.5 -0.2 97.9 -1.5 97.4 c -0.8 -0.3 -3.7 -0.1 -6.5 0.5 c -4.2 0.9 -5.5 0.8 -7.5 -0.5 c -2.2 -1.4 -2.7 -1.4 -5.4 0 c -1.7 0.9 -5 1.8 -7.3 2 C -70.1 389 -71 388.7 -73.4 386 Z"/>
<path title="" class="area excluded" id="_2" d="M -44.1 567.3 c -0.6 -1 -3.3 -2.7 -6 -3.7 c -2.8 -1 -5 -2.2 -5 -2.6 c 0 -0.4 -0.7 -0.8 -1.5 -0.8 s -1.5 0.6 -1.5 1.4 c 0 0.8 -0.7 1.7 -1.5 2 c -0.8 0.3 -1.5 1.2 -1.5 2 c 0 0.8 -0.6 1.7 -1.3 1.9 c -2 0.7 -10.7 -0.4 -10.7 -1.4 c 0 -0.5 -0.6 -0.9 -1.2 -0.9 s -2.5 -0.7 -4 -1.4 c -2.3 -1.2 -3 -1.2 -4 -0.1 s -1.5 1.1 -2.5 0 c -0.7 -0.7 -1.3 -2 -1.3 -2.8 c 0 -0.8 -1.1 -1.8 -2.4 -2.2 c -1.7 -0.4 -2.6 -1.6 -3.1 -3.6 c -0.4 -1.7 -1.5 -3.8 -2.5 -4.8 c -3.7 -3.7 -4.2 -5.7 -2 -8 c 1.1 -1.1 1.6 -2 1.1 -2 s -1.1 -0.9 -1.4 -2 c -0.3 -1.1 -1.6 -2.4 -3 -2.9 s -2.8 -1.7 -3.1 -2.6 c -0.8 -2.1 3.8 -8.4 6.1 -8.4 c 0.9 0 2.5 -0.8 3.6 -1.8 c 1.4 -1.3 3.5 -1.7 7.6 -1.6 c 3.1 0.1 5.9 -0.2 6.1 -0.5 c 0.3 -0.4 1.6 -1.1 3 -1.7 c 1.6 -0.7 2.5 -1.9 2.5 -3.5 c 0 -2.2 0.4 -2.4 4 -2.2 c 5.8 0.3 12.3 -0.7 13.7 -2.1 c 1.7 -1.6 9.3 -4.6 11.8 -4.6 c 1.1 0 2 -0.5 2 -1 s 0.9 -1 2 -1 c 2 0 2 0.7 2 32.5 v 32.5 h -2.5 C -42 569.2 -43.5 568.4 -44.1 567.3 Z M -101.7 522.4 c 0.4 -0.6 -0.2 -3.3 -1.4 -5.9 l -2.1 -4.7 l 4.5 -4.6 c 2.5 -2.5 4.5 -5.1 4.5 -5.8 c 0 -2 3 -0.1 4.6 2.9 c 1.1 2.2 2.4 3 5.5 3.5 c 5.3 0.9 5.1 3 -0.5 5.5 c -2.5 1.1 -4.5 2.6 -4.5 3.3 c 0 1.7 -3.2 4.6 -5.6 5.1 c -1 0.2 -2.7 0.7 -3.8 1.1 C -101.9 523.3 -102.2 523.2 -101.7 522.4 Z"/>
<path title="" class="area excluded" id="_3" d="M -283.6 360.2 c -0.4 -0.6 -1.2 -0.8 -1.8 -0.4 c -0.7 0.5 -0.9 0.1 -0.4 -1.2 c 0.4 -1 0.4 -1.6 0 -1.2 c -1.2 1.2 -4.4 -1.2 -4.4 -3.3 c 0 -1.1 0.5 -2 1.1 -2 s 0.8 -0.5 0.4 -1 s -0.3 -1.6 0.1 -2.2 c 1.7 -2.7 1.1 -4.4 -1.3 -4 c -1.3 0.2 -2.3 1 -2.3 1.6 s -0.4 0.5 -0.9 -0.3 c -0.7 -1 -0.3 -1.7 1.2 -2.5 c 2.1 -1.1 3.5 -7.4 1.7 -7.7 c -0.5 -0.1 -1.4 -0.2 -2.1 -0.2 s -1.3 -0.7 -1.6 -1.3 c -0.4 -1.3 7.9 -2.9 9.7 -1.9 c 0.7 0.4 1.1 -0.3 1.1 -1.9 c 0 -2.9 -1.2 -3.3 -3 -1.1 c -1.6 1.9 -5.7 1.9 -7.6 0.1 c -0.8 -0.8 -1.4 -3.4 -1.4 -6 c 0 -4.1 0.2 -4.6 2.2 -4.6 c 1.2 0 2.9 -0.5 3.8 -1 c 1.1 -0.7 0.5 -1 -2.5 -1.1 c -3.6 -0.1 -3.8 -0.2 -1.8 -1.2 c 1.2 -0.6 2.2 -1.5 2.2 -2 s 1 -0.8 2.2 -0.6 s 2.5 -0.1 2.8 -0.7 c 0.3 -0.5 -0.6 -1.1 -1.9 -1.3 c -1.8 -0.3 -2.1 -0.6 -1.1 -1.2 c 0.8 -0.5 2.2 -0.4 3.2 0.1 c 2.4 1.3 2.5 -1.6 0.2 -2.9 c -1.1 -0.6 -1.3 -1.1 -0.5 -1.6 c 0.6 -0.4 1.1 -0.4 1.1 0 s 0.7 0.1 1.5 -0.5 c 0.8 -0.7 2 -0.9 2.7 -0.5 c 0.8 0.5 1 0.2 0.6 -0.8 c -0.3 -0.9 0 -2.4 0.8 -3.4 c 1.2 -1.6 1.5 -1.7 2.4 -0.3 c 0.8 1.2 1 1.2 1 0.1 c 0 -0.9 0.7 -1.2 2.1 -0.8 c 2.7 0.7 6.1 -2.6 5.2 -5 c -0.4 -0.9 -0.2 -1.4 0.3 -1.1 s 1.8 -0.6 2.9 -2.1 c 1.9 -2.6 1.9 -2.6 0 -1.2 c -1.1 0.8 -3.1 2.8 -4.5 4.4 c -1.9 2.2 -2.7 2.6 -3.1 1.5 c -0.8 -2 2.2 -8.9 3.8 -8.9 c 0.8 0 1.5 -0.7 1.5 -1.5 c 0.1 -0.8 0.2 -2.1 0.2 -2.7 s 1.4 -2.5 3.1 -4 s 2.5 -2.7 1.8 -2.8 c -0.8 0 -1.1 -1.2 -0.8 -3.3 c 0.6 -5 1 -6.4 2.5 -8.1 c 1.1 -1.4 1.1 -1.6 -0.3 -1.6 c -1.3 0 -1.5 -0.6 -1 -2.8 c 1.1 -4.9 2.7 -7.3 5.9 -8.2 c 2.8 -0.8 2.9 -1 0.9 -1.6 c -2 -0.6 -2.1 -0.8 -0.6 -3.8 c 1.1 -2.2 1.2 -3.2 0.4 -3.5 c -2 -0.7 -1.3 -2.5 0.8 -2 c 1.3 0.4 1.8 0.1 1.4 -0.9 c -0.3 -0.8 0.4 -1.7 1.7 -2.2 c 1.6 -0.6 1.9 -1 0.9 -1.4 c -0.8 -0.3 -2.3 -0.2 -3.4 0.3 s -1.4 0.8 -0.7 0.9 c 0.7 0 1.1 0.5 0.7 1 c -0.7 1.2 -6 0.7 -6.1 -0.5 c 0 -0.5 -0.3 -1.4 -0.7 -1.9 c -1.1 -1.8 0.8 -3.8 3.1 -3.2 c 1.2 0.3 2.1 0.1 2.1 -0.5 s 0.6 -0.3 1.3 0.7 c 1.2 1.7 1.4 1.7 3 0.1 c 0.9 -0.9 1.7 -2 1.7 -2.4 c 0 -1.2 -1.5 -3 -2.5 -3.1 c -0.5 -0.1 -1 -0.9 -1 -1.8 c 0 -1.4 0.7 -1.7 3.4 -1.4 c 1.8 0.2 3.1 -0.1 2.8 -0.6 c -0.3 -0.5 0.4 -2.4 1.6 -4.3 l 2.1 -3.4 l 1.3 3 l 1.3 3 l 0.3 -3.5 c 0.3 -2.9 0.7 -3.5 2.6 -3.4 c 2.9 0.1 2.9 -2.2 0.1 -3.1 c -1.5 -0.5 -1.8 -0.9 -0.9 -1.5 c 0.7 -0.4 1 -1.5 0.7 -2.4 s -0.2 -1.8 0.4 -2.2 c 0.8 -0.5 1.4 1.4 1.1 3.6 c 0 0.3 1 1.1 2.2 1.7 c 2.1 1 2.3 0.8 2.4 -1.6 c 0.1 -4.9 1.5 -9.4 3.3 -11.3 c 1.8 -1.8 1.8 -1.7 2.5 1.6 c 0.4 1.9 0.4 4.6 0 6 s -0.2 2.5 0.4 2.5 s 1 -2.1 1 -4.8 s 0.5 -5.4 1 -6.2 c 0.8 -1.3 1 -1.3 1 0.2 c 0 0.9 0.5 2 1.1 2.4 c 0.7 0.4 1 -0.5 0.8 -2.7 c -0.2 -2.5 0.1 -3.4 1.4 -3.7 c 1.4 -0.3 1.8 0.3 1.8 2.8 c 0 2.1 0.4 3 1.2 2.7 c 0.7 -0.2 1.2 -1.5 1.2 -2.8 c 0 -1.9 0.6 -2.4 2.5 -2.5 c 2.1 -0.1 5.3 0.9 6.8 2.2 c 0.8 0.7 -2 4.5 -3.4 4.5 c -0.8 0 -1.5 0.4 -1.5 0.9 c 0 1.4 2.9 2.2 5.6 1.5 c 1.5 -0.4 2.4 -0.2 2.4 0.5 c 0 0.6 -0.4 1.1 -0.9 1.1 s -1.2 1.9 -1.6 4.2 l -0.7 4.2 l -1.3 -3.1 c -1.4 -3.1 -5.3 -6.4 -7.7 -6.4 c -0.7 0 -2.4 1.4 -3.6 3.1 c -2 2.7 -2.2 3.6 -1.3 7.2 c 0.6 2.3 0.8 5.4 0.5 6.9 c -0.5 2.3 -0.9 2.6 -2.8 2.2 c -1.7 -0.4 -2.6 0 -3.4 1.5 c -1.5 2.8 -2.3 2.6 -6.4 -0.9 c -3.3 -2.9 -3.5 -2.9 -4.8 -1.2 c -0.7 1 -2.2 2.2 -3.2 2.5 c -1.6 0.6 -1.7 0.9 -0.5 2.3 c 1.8 2.2 1.9 6.6 0.1 5.9 c -2.3 -0.9 -7.4 2.3 -6.8 4.3 c 0.4 1.1 -0.2 2 -1.7 2.7 c -3.1 1.4 -5.4 6.3 -3.9 8.6 c 1.5 2.4 0.4 12.1 -1.6 13.6 c -1.2 1 -1.4 2.5 -0.8 7.1 c 0.4 3.5 0.2 7 -0.4 8.7 c -0.6 1.6 -0.7 3.1 -0.2 3.4 c 0.5 0.3 1.2 1.6 1.6 2.8 c 0.6 1.8 0.2 2.3 -1.9 2.9 c -3.8 0.9 -6.8 7.3 -5.9 12.2 c 0.4 2 0.6 4.1 0.5 4.5 s 0.5 2.1 1.3 3.7 s 1.5 4.2 1.5 5.7 c 0 1.7 0.8 3.3 2 4.1 c 2 1.3 2.9 6.2 1.1 6.2 c -0.5 0 -0.3 1.6 0.5 3.5 c 1.3 3.1 1.3 4.2 0.1 8.3 c -0.9 3.2 -1.1 5.3 -0.5 6.5 c 1.3 2.4 0.3 3.5 -2.5 2.9 c -2 -0.4 -2.6 -1.3 -3.4 -5.1 l -0.9 -4.7 l -1.2 2.8 c -0.8 1.9 -0.8 3.4 -0.2 4.7 c 0.8 1.5 0.2 2.7 -3.2 6.2 c -2.3 2.4 -5 5.6 -5.9 7.3 c -1 1.6 -2.4 3 -3.1 3.1 s -2.5 0.5 -3.9 0.9 C -281.8 361.1 -283.2 360.9 -283.6 360.2 Z M -227.4 201.4 c -0.3 -1 -0.5 -0.2 -0.5 1.8 s 0.2 2.7 0.5 1.8 S -227.2 202.4 -227.4 201.4 Z"/>
<path title="" class="area excluded" id="_4" d="M -198.1 319.1 c 0 -1.5 -0.7 -1.9 -2.9 -1.9 c -3.7 0 -6.1 -3.2 -6.1 -8.2 c 0 -2 -0.4 -4 -0.9 -4.3 s -2.1 -3 -3.5 -5.9 l -2.6 -5.3 l 3.2 -6.9 c 3.6 -7.9 6.8 -17.2 6.9 -19.6 c 0 -0.9 0.7 -2.2 1.5 -2.9 c 1.3 -1.1 1.2 -1.5 -1 -3.6 c -1.4 -1.3 -2.5 -2.8 -2.5 -3.4 s -0.3 -1 -0.8 -0.9 c -4.3 0.7 -5.3 -0.4 -9.8 -10.1 c -5.1 -11.1 -7 -13.4 -13.4 -16.6 c -7.5 -3.7 -7.6 -3.8 -6.8 -5.9 c 0.5 -1.4 1.2 -1.2 4.2 1.5 c 4.2 3.7 4.9 3.8 6.8 1 c 1.1 -1.5 2.1 -1.9 3.9 -1.4 c 2.2 0.6 2.6 0.3 3 -2.7 c 0.3 -1.8 0.1 -5.2 -0.5 -7.5 c -0.8 -3.5 -0.7 -4.6 0.8 -6.7 c 2.2 -3 3.5 -3.2 6.8 -1.1 c 2 1.3 3.6 4.4 4.1 7.9 c 0.4 2.9 3.6 8.5 4.9 8.5 c 0.8 0 2.6 0.5 4 1.1 c 2.1 0.9 2.6 2.1 3.1 6.9 c 0.6 5.2 1.1 6.2 5.6 10.6 c 2.7 2.7 4.4 5.1 3.9 5.5 c -0.7 0.4 -0.5 1.7 0.5 3.6 c 0.8 1.6 1.5 3.5 1.5 4.2 s 0.9 1.2 2 1.2 s 2 0.6 2 1.3 c 0 0.7 1.2 2 2.6 2.7 c 2.1 1.1 2.5 1.9 2.1 4 c -0.5 2.4 0 2.9 4.4 5 c 4.2 2 5.1 2.9 6.1 6.3 c 1.3 4.2 1.3 4.2 -4.3 22.9 c -2.3 7.6 -2.3 7.7 -6.1 8.3 c -2.1 0.3 -3.8 1 -3.8 1.5 s -1.6 2.5 -3.5 4.6 s -3.5 4 -3.5 4.4 c 0 1.4 -4.3 3.3 -8.1 3.7 C -197.5 321 -198.1 320.7 -198.1 319.1 Z"/>
<path title="" class="area excluded" id="_5" d="M -240.3 385.5 c 0.9 -1.6 0.6 -2.4 -1.5 -4.2 c -1.5 -1.3 -2.2 -2.5 -1.6 -2.9 s 1.2 -0.9 1.3 -1.1 c 0.4 -0.7 -3.4 -7 -4.2 -7 c -1.3 0 -6 -9 -5.8 -11.2 c 0.4 -5 0 -5.9 -2.1 -4.8 c -1.1 0.6 -2 0.7 -2.1 0.3 s -0.3 -2.2 -0.5 -4 s 0 -3.2 0.5 -3.2 c 1.4 0 2.2 -3 1.2 -4.8 c -0.6 -1 -0.4 -3.4 0.5 -6.3 c 1 -3.3 1.1 -5.5 0.4 -7.2 c -0.5 -1.4 -0.7 -4.1 -0.4 -6 c 0.4 -2.7 0.1 -3.9 -1.6 -5.3 c -1.2 -1 -2.1 -2.9 -2.1 -4.1 s -0.7 -3.7 -1.6 -5.4 c -0.9 -1.7 -1.4 -3.3 -1.1 -3.5 c 0.3 -0.3 0 -2.1 -0.5 -4.1 c -0.8 -2.8 -0.6 -4.4 0.8 -7.4 c 1 -2.1 2.3 -3.9 2.9 -3.9 s 2 -0.6 3 -1.3 c 1.7 -1.2 1.7 -1.6 0.4 -4.3 c -1 -2.1 -1.2 -3.7 -0.6 -5.4 c 0.5 -1.3 0.6 -4.8 0.2 -7.7 c -0.5 -4 -0.3 -5.7 0.8 -7 c 1.9 -2.2 3 -11.8 1.6 -14.1 c -1.6 -2.5 1 -7.5 4 -7.9 c 1.9 -0.3 2.2 -0.8 1.7 -2.7 c -0.6 -2.5 1.5 -3.9 5.8 -4 c 2.4 0 3 -4.3 0.8 -6.8 c -2.5 -2.8 0.3 -2.2 8.5 1.8 c 6.1 3 7.6 4.3 9.3 7.8 c 1.1 2.3 2.7 5.3 3.4 6.7 s 2.4 4.5 3.6 6.9 c 2.1 4.4 2.1 4.4 0.2 6.4 c -1.6 1.6 -2.3 1.7 -4.1 0.8 c -2 -1.1 -2.1 -1 -1.1 0.9 c 0.6 1.2 0.8 2.6 0.4 3.2 c -1.4 2.3 -1.3 10.3 0.2 11.9 c 2.4 2.7 -0.2 8.7 -7.7 17.8 c -0.6 0.8 -1.2 2.4 -1.4 3.6 c -0.1 1.2 -0.7 3.1 -1.2 4.1 c -1.4 2.7 -0.7 13.2 1.1 17.6 c 0.9 2.1 2.4 4.1 3.4 4.5 c 3.6 1.5 9.3 5.4 9.3 6.4 c 0 0.5 -0.7 2.2 -1.4 3.7 c -0.8 1.5 -1.2 3.7 -0.9 4.9 c 0.4 1.5 -0.3 2.9 -2.6 5 c -3.1 2.8 -3.1 3 -2.1 7.7 c 0.7 2.9 0.7 5.2 0.2 5.9 c -0.6 0.7 -0.5 3.3 0.1 6.6 c 1.3 7.1 -0.7 12.5 -5 13.4 c -3.3 0.7 -5.8 4.1 -4.4 5.9 c 1.6 1.9 -1 4.4 -5.3 5.2 C -241.1 387.4 -241.3 387.3 -240.3 385.5 Z M -212.9 358.8 c -0.7 -1.6 -0.8 -2.7 -0.2 -3.1 c 0.5 -0.3 1 -1.6 1.1 -2.8 c 0.1 -2 0.2 -2 0.6 -0.2 c 0.3 1.1 0.9 2.5 1.3 3 c 0.4 0.6 0.3 2 -0.4 3.3 l -1.2 2.3 L -212.9 358.8 Z"/>
<path title="" class="area excluded" id="_6" d="M -422.6 288.2 c -2.2 -1.1 -4.8 -3.4 -5.7 -5.1 c -1 -1.7 -2.2 -2.8 -2.7 -2.5 s -2.1 0 -3.6 -0.6 c -2.5 -1.1 -2.5 -1.3 -0.6 -2 c 2 -0.7 1.9 -0.9 -1 -6.4 c -1.7 -3.1 -2.9 -5.8 -2.7 -5.9 c 0.2 -0.2 2.5 0 5.1 0.4 s 5 0.4 5.3 -0.1 c 0.3 -0.5 0 -0.8 -0.7 -0.8 c -0.9 0 -0.9 -0.3 0 -1.4 s 0.7 -1.7 -1.1 -3 c -1.2 -0.9 -3.3 -1.6 -4.6 -1.6 c -1.3 0 -2.1 -0.4 -1.7 -1 c 0.3 -0.5 1.3 -0.7 2.2 -0.3 c 1.2 0.5 1.5 0.2 1.1 -0.9 c -0.3 -0.8 -0.2 -2.1 0.3 -2.9 c 0.7 -1.1 1.3 -0.8 2.9 1.1 l 2.1 2.4 l -0.4 -3.2 c -0.6 -4.4 0.7 -4.9 2.9 -0.9 c 1.4 2.6 1.5 3.7 0.6 5.4 c -1.4 2.6 -1.5 7.2 -0.1 7.2 c 0.6 0 1.3 -0.7 1.6 -1.5 s 1.2 -1.5 1.9 -1.5 c 0.7 0 1.6 -1 2 -2.2 c 0.6 -1.9 0.9 -2 1.8 -0.7 c 0.9 1.2 1.5 1.3 3.6 0.2 c 2.3 -1.2 2.6 -1.1 3.3 1.2 c 0.5 1.4 1.3 2.5 1.9 2.5 s 0.8 -0.7 0.4 -1.5 c -0.6 -1.5 0.5 -2 1.7 -0.8 c 0.4 0.4 1.8 0.8 3.2 0.9 c 2 0.2 2.8 -0.3 3.6 -2.4 c 0.8 -2.1 1.2 -2.3 1.9 -1.2 c 0.5 0.8 0.7 1.7 0.4 2.1 s 0.8 1.7 2.3 2.9 c 2.2 1.7 2.5 2.5 1.6 3.8 s -0.7 2.4 0.8 4.9 c 2.1 3.4 1.7 8.3 -0.6 8.3 c -0.7 0 -2 0.8 -2.9 1.9 c -0.9 1 -2.8 1.9 -4.2 1.9 c -1.4 0 -3.3 0.8 -4.4 1.7 c -1.3 1.2 -3.2 1.6 -6.1 1.4 c -2.7 -0.2 -4.4 0.1 -4.7 0.9 C -416.4 290.7 -418 290.5 -422.6 288.2 Z"/>
<path title="" class="area excluded" id="_7" d="M -400.9 597.8 c -4.7 -1.2 -4.9 -1.5 -2.8 -5.5 c 0.9 -1.7 1.1 -3.3 0.6 -4.1 s -0.4 -2.2 0.1 -3.2 c 1.1 -2.1 0.2 -4.1 -1.6 -3.4 c -1.9 0.7 -3.9 -3.7 -2.8 -6 c 0.5 -1 0.8 -2.4 0.5 -3.1 s 0 -1.2 0.5 -1.2 c 1.4 0 5.8 -7.8 6.7 -12 c 0.4 -1.9 0.8 -6.4 0.9 -10 c 0.1 -6 0.3 -6.5 2.3 -6.8 c 1.6 -0.2 2.1 0.1 1.7 1.1 c -0.4 1.1 0.9 1.4 6.7 1.6 c 6.3 0.1 7.5 0.4 9 2.4 c 2.3 3 2.3 2.9 -1.5 5.5 c -2.8 1.9 -3.5 3.2 -4.6 8.5 c -1.8 8.7 -1.8 8.8 -4.1 8.8 c -2.5 0 -2.5 0.7 -0.2 4.5 c 1.7 2.7 1.7 3.3 0.4 6.1 c -1.1 2.3 -1.2 3.6 -0.4 5 c 0.8 1.5 0.5 2.3 -1.4 4.1 c -1.3 1.2 -2.4 3.3 -2.4 4.6 c 0 2.2 -1.7 4.9 -3 4.6 C -396.4 598.9 -398.5 598.4 -400.9 597.8 Z"/>
<path title="" class="area excluded" id="_8" d="M -380.9 607.9 c -1.8 -1.8 -3.2 -4.3 -3.2 -5.4 c 0 -2.4 -3.4 -5.3 -6.2 -5.3 c -3.5 0 -1.6 -6.9 2.3 -8.2 c 0.8 -0.3 0.8 -1.1 -0.1 -3 c -0.9 -2.1 -0.9 -3.2 0.4 -5.5 c 1.4 -2.7 1.4 -3.2 -0.4 -5.9 c -1.9 -2.9 -1.9 -2.9 0.1 -3.7 c 2.2 -0.8 2.3 -0.9 4.1 -9.5 c 0.7 -3.4 1.5 -6.3 1.8 -6.3 s 1.8 -1.1 3.3 -2.3 c 2.5 -2.1 2.6 -2.5 1.5 -5 c -1.5 -3.3 -2.6 -3.7 -10.5 -3.9 c -4.9 -0.1 -6 -0.5 -5.5 -1.6 c 0.4 -1.1 -0.1 -1.4 -2.6 -1 c -3.5 0.5 -3.6 0.4 -2.2 -2.1 c 0.7 -1.4 0.5 -2.5 -1 -4.3 c -1.1 -1.4 -2 -3.1 -2 -3.7 c 0 -1.8 3.1 -3.9 5.8 -3.9 c 1.3 0 3 -0.7 3.9 -1.6 c 1.1 -1.1 2.4 -1.4 4.2 -0.9 c 1.4 0.4 6 1 10.1 1.4 c 4.1 0.4 8.8 1.3 10.5 2 s 5.7 1.4 9 1.6 c 11.5 0.6 17.9 1.5 19.5 2.9 c 3.1 2.8 13.1 5.8 17.1 5.1 c 3.3 -0.5 4.2 -0.3 6 1.8 c 1.9 2.2 2.7 2.4 9.5 2.1 c 4.1 -0.2 7.7 0.1 8 0.6 s 0.1 1 -0.5 1 c -0.8 0 -0.8 0.6 0 2 c 0.9 1.6 0.6 2.2 -1.7 3.7 c -1.5 0.9 -3.7 2.5 -4.8 3.4 c -1.1 0.9 -4 2.3 -6.4 3 c -3 1 -5.1 2.5 -6.7 4.9 c -1.3 2 -4 5.7 -5.9 8.4 c -4.4 6.1 -4.8 11.1 -1 12.8 l 2.5 1.2 l -3.1 1.9 c -3.4 2.1 -7.5 9.1 -6.4 10.9 c 0.5 0.7 -0.2 0.9 -1.9 0.6 c -2 -0.4 -3.3 0.2 -5.5 2.6 c -1.6 1.7 -3.2 3.9 -3.5 4.8 c -0.4 1.1 -1.2 1.5 -2.2 1.1 c -0.9 -0.3 -2.1 -0.1 -2.8 0.5 c -0.8 0.7 -2.6 0.7 -5.2 0.1 c -2.2 -0.5 -5.6 -0.9 -7.6 -0.9 c -4.2 0 -11.7 2.9 -13.7 5.3 C -376 611.9 -377.3 611.6 -380.9 607.9 Z M -313.1 580.2 c 0 -0.6 0.5 -1.1 1 -1.1 c 1.3 0 1.3 0.7 0 1.5 C -312.7 581 -313.1 580.8 -313.1 580.2 Z M -299.5 574.6 c -1 -0.8 -2.3 -1.2 -2.8 -0.9 s -0.9 0.2 -0.9 -0.3 c 0 -1.6 3.9 -3.3 5.9 -2.5 c 1.7 0.6 1.8 1.1 0.8 2.9 C -297.5 575.8 -297.8 575.9 -299.5 574.6 Z M -290.6 568.2 c 0.8 -1.3 2.5 -1.3 2.5 0 c 0 0.5 -0.7 1 -1.6 1 S -291 568.7 -290.6 568.2 Z"/>
<path title="" class="area excluded" id="_9" d="M -248.9 545.3 c -3.9 -4.1 -4 -6.4 -0.5 -9.9 l 2.7 -2.7 l 1.3 3.3 c 0.9 2.3 1.1 4.7 0.5 8 l -0.8 4.7 L -248.9 545.3 Z M -311 538.9 c -1.6 -1.6 -3.2 -2 -8.3 -1.9 c -6.3 0.1 -15.4 -2.4 -18.2 -5 c -1.1 -1 -1.1 -1.4 0.1 -2.3 c 1.9 -1.4 4.3 -10.9 4.3 -16.9 c 0 -4.2 0.2 -4.7 1.5 -3.6 c 1.2 1 1.5 1 1.5 -0.3 c 0 -0.8 -0.7 -2.1 -1.5 -2.7 c -0.8 -0.6 -1.5 -2.8 -1.5 -4.6 c 0 -2.7 -0.6 -3.6 -2.9 -4.9 c -2.9 -1.5 -4.7 -4.7 -3.6 -6.5 c 0.3 -0.5 -0.4 -1.6 -1.5 -2.4 c -1.2 -0.8 -1.9 -1.9 -1.6 -2.4 c 0.7 -1.2 -11.1 -6.6 -12.9 -5.9 c -0.8 0.3 -1.4 0.4 -1.4 0.2 c 0 -0.2 -0.3 -1.2 -0.7 -2.1 c -0.5 -1.2 -0.3 -1.5 0.5 -1 c 1.7 1.1 1.4 -1.5 -0.4 -3.5 c -1.4 -1.6 -1.4 -1.8 0.5 -2.4 c 1.1 -0.4 2.5 -0.4 3 -0.1 c 0.5 0.3 2.2 0.1 3.7 -0.5 c 2.3 -0.9 3.1 -0.7 4.8 0.9 c 1.4 1.3 2.6 1.7 3.5 1.1 c 0.8 -0.5 2.9 -0.7 4.7 -0.4 c 3.2 0.4 3.3 0.3 2.3 -2.3 c -0.6 -1.5 -0.8 -3.3 -0.5 -4 c 0.3 -0.7 0.1 -1.3 -0.5 -1.3 c -1.5 0 -1.1 -2.7 0.4 -3.3 c 0.8 -0.3 1.6 0.2 1.9 1.4 c 0.3 1.2 1.1 1.7 1.9 1.4 c 0.8 -0.3 2.7 -0.1 4.2 0.5 c 2.9 1.1 6.1 -0.3 5 -2.1 c -0.9 -1.4 1.3 -3.6 4.4 -4.3 c 3.9 -1 6.2 -3.9 6.2 -8 c 0 -2.8 0.5 -3.8 2.3 -4.6 c 2 -0.9 2.8 -0.6 5.7 2.1 c 1.8 1.7 4.6 3.8 6.2 4.6 c 1.6 0.8 2.8 1.9 2.8 2.4 s 0.9 1 2 1 s 3.6 0.9 5.5 2 s 4.9 2 6.5 2 c 1.9 0 3.3 0.7 4 2 c 0.7 1.2 2.1 2 3.8 2 c 1.5 0 4.3 0.3 6.3 0.6 l 3.6 0.6 l -1.9 4.9 c -1 2.7 -1.9 6.3 -1.9 7.9 c 0 2.2 -0.6 3.3 -2.3 4 c -2.1 1 -5.7 6 -5.7 8 c 0 0.5 -1.1 2.5 -2.5 4.6 c -1.4 2 -2.3 3.9 -2 4.2 c 0.3 0.3 2.1 -0.5 4 -1.6 c 1.9 -1.2 4.2 -1.8 5 -1.5 c 1.6 0.6 2 3.9 0.6 4.8 c -0.5 0.3 -0.4 1.8 0.2 3.6 c 0.9 2.4 0.9 3.2 -0.2 3.9 c -1 0.6 -1.1 1.3 -0.2 2.9 c 0.6 1.1 1.1 3.2 1.1 4.6 c 0 1.9 0.8 2.8 3.4 3.7 c 3.9 1.4 3.8 2.5 -0.9 8.2 c -4.4 5.3 -7 6 -14.5 3.7 c -3.4 -1.1 -7.3 -1.9 -8.7 -1.9 c -5.8 0 -10.9 5.2 -9.7 9.9 c 0.4 1.4 0.1 2.1 -0.8 2.2 C -308.1 540.9 -309.1 540.7 -311 538.9 Z"/>
<path title="" class="area" id="_10" d="M -364.3 453.1 c -1 -0.7 -1 -0.9 0.4 -0.9 c 0.9 0 2.1 -0.6 2.5 -1.4 c 0.4 -0.7 1.8 -1.9 3 -2.5 s 2.2 -1.8 2.2 -2.6 c 0 -2 3.2 -3.5 7.3 -3.5 c 3.3 0 6.4 -2 5 -3.3 c -0.4 -0.4 -1.7 -0.4 -2.9 -0.1 c -1.5 0.4 -3.4 -0.2 -5.4 -1.6 c -1.7 -1.2 -3.7 -2 -4.4 -1.7 c -1.4 0.5 -3.6 -1.1 -3.6 -2.5 c 0 -0.4 0.7 -0.8 1.6 -0.8 s 2.9 -1.3 4.4 -2.9 c 3.4 -3.4 3.4 -6.8 0.1 -6.4 c -1.5 0.2 -2 -0.1 -1.4 -1 c 0.4 -0.7 0.6 -2.1 0.5 -3.1 c -0.2 -1.5 0.1 -1.7 1.5 -1.1 c 2.6 1.1 6.6 0.7 8.1 -0.9 c 0.7 -0.7 1.6 -3.2 1.8 -5.4 c 0.4 -3.4 0.2 -4 -1.3 -3.9 c -1.4 0.1 -1.8 -0.7 -1.8 -3.9 l -0.1 -4 l -5.7 0.1 c -6.1 0.1 -6.8 -0.5 -3.7 -3.6 c 1.5 -1.5 1.8 -2.8 1.4 -5 c -0.4 -1.9 -0.2 -3 0.5 -3 c 0.6 0 0.9 -0.6 0.6 -1.3 c -0.5 -1.4 -4.4 -1.8 -4.4 -0.5 c 0 0.4 -0.4 0.8 -0.9 0.8 s -1 -1.5 -1 -3.2 s -0.1 -4.1 -0.1 -5.2 c -0.2 -6.3 1 -13 2.4 -14.1 c 0.9 -0.6 1.6 -1.8 1.6 -2.5 c 0.1 -3 2.6 -4.6 7.7 -5.1 c 4.5 -0.4 5.2 -0.3 5.2 1.3 c 0 1 -1.6 2.8 -3.6 4 c -2.7 1.7 -3.3 2.4 -2.2 3.2 c 1 0.7 1.1 1.1 0.1 1.4 c -0.7 0.3 -1.2 1.2 -1.2 2 c 0 1.3 0.2 1.2 1.6 -0.1 c 1.2 -1.2 2.7 -1.5 6.2 -1 c 7.6 1 7.5 0.8 4.1 7.4 c -1.7 3.3 -3.5 6 -4.1 6 c -0.8 0 -0.8 0.4 0 1.4 c 0.9 1.1 0.7 1.5 -1 1.9 c -1.3 0.3 -1.8 1 -1.4 1.7 c 0.4 0.6 1.3 0.9 2.1 0.6 s 3 0.9 4.9 2.6 c 3 2.6 3.4 3.6 2.9 6 c -0.5 2.3 -0.1 3.4 2.2 5.6 c 3.1 2.9 7.8 9.2 6.9 9.2 c -0.3 0 0.4 2.1 1.5 4.7 c 1.5 3.6 1.8 5.3 1 6.9 c -1.3 2.9 -0.4 3.6 2.4 1.7 c 3.3 -2.2 8.1 0.1 7.7 3.7 c -0.4 4 -2.3 7.9 -4.2 8.5 c -2 0.6 -2.2 3.6 -0.3 4.8 c 0.7 0.4 1.8 0.5 2.4 0.1 c 2.3 -1.4 0.2 2 -2.5 4 c -2 1.5 -4.4 2.1 -9.5 2.1 c -3.7 0.1 -7.3 0.4 -7.8 0.7 c -1.5 0.9 -7.6 1.1 -9.6 0.2 c -1.2 -0.5 -2.6 0.1 -4.6 2.2 c -2.5 2.5 -3.2 2.7 -4.8 1.7 c -1.5 -1 -2.6 -0.9 -5.5 0.6 C -361.5 453.2 -363.4 453.6 -364.3 453.1 Z M -367.9 405.7 c -1.3 -2.8 -3 -3.2 -3.8 -1 c -0.8 2.1 -2.1 1.9 -3.4 -0.6 c -0.9 -1.8 -0.7 -2.5 1.6 -4.9 c 1.6 -1.7 2.5 -3.5 2.1 -4.4 c -0.7 -1.7 0.8 -2.2 1.8 -0.6 c 0.3 0.5 1.6 1 2.8 1 c 1.5 0 2.9 1.3 4.6 4.2 l 2.4 4.2 l -2.7 2.3 C -365.9 408.8 -366.5 408.8 -367.9 405.7 Z M -356.1 407.7 c 0 -0.2 0.5 -0.7 1 -1.1 c 0.5 -0.3 1 -0.1 1 0.4 s -0.5 1.1 -1 1.1 S -356.1 408 -356.1 407.7 Z M -364.5 370.6 c -0.8 -2.1 -0.8 -2.1 0.8 -2.7 c 0.9 -0.3 1.6 0.3 1.9 1.9 C -361.3 372.5 -363.5 373.2 -364.5 370.6 Z M -366.5 363.3 c -0.9 -1.4 -0.1 -2.8 2.5 -4.2 c 2.5 -1.3 2.5 0.1 0.1 3.1 C -365.2 363.8 -366 364.1 -366.5 363.3 Z M -344.1 353.5 c 0 -2 2.5 -4.3 4.5 -4.3 c 1.8 0 1.5 2.4 -0.3 2.6 c -2.4 0.3 -2.6 0.4 -1.3 1.3 c 1 0.6 0.8 1 -0.8 1.4 C -343.4 354.8 -344.1 354.5 -344.1 353.5 Z M -332.1 341 c 0 -0.9 -0.5 -1.8 -1.1 -2 c -1.6 -0.5 -0.2 -3 2.8 -5.2 c 2.6 -1.9 2.6 -1.9 1.8 0 c -0.4 1.1 -1.4 3.5 -2.1 5.4 C -331.4 341.1 -332 341.9 -332.1 341 Z"/>
<path title="" class="area excluded" id="_11" d="M -263 399.1 c -1.3 -0.5 -2.8 -0.7 -3.2 -0.4 c -0.5 0.3 -0.9 -0.8 -0.9 -2.4 s -1.1 -6.1 -2.5 -9.9 c -2.9 -8 -3.1 -11.6 -0.9 -13.4 c 0.9 -0.7 3.4 -3 5.6 -5.1 c 4.8 -4.6 6.1 -3.9 4.9 2.6 c -0.9 5 -0.1 6.8 3.1 6.8 c 1.7 0 1.5 0.8 -1.7 6.7 c -3.8 7.1 -4.5 11.7 -2.1 12.6 c 0.8 0.3 1.5 1.3 1.5 2.1 C -259.1 400.4 -259.6 400.4 -263 399.1 Z M -250.2 396.9 c -0.1 -0.1 -0.2 -2 -0.4 -4 c -0.2 -3.7 1.3 -5.7 4.4 -5.7 c 1.4 0 0.2 8.2 -1.3 9.2 C -248.6 397.1 -250 397.4 -250.2 396.9 Z M -257.8 393.4 c -0.9 -0.5 -0.8 -1.2 0.2 -2.7 c 1.7 -2.4 3.1 -1.3 1.8 1.4 C -256.2 393.3 -257.1 393.8 -257.8 393.4 Z M -363.1 316.2 c -1.2 -0.8 -1.2 -1 0.3 -1.6 c 2.1 -0.8 3.4 0.2 2.1 1.5 C -361.3 316.7 -362.2 316.7 -363.1 316.2 Z"/>
<path title="" class="area excluded" id="_12" d="M -191.5 592 c -1.1 -0.6 -3.3 -1.5 -5 -1.9 c -11 -2.9 -17.3 -6.5 -15.1 -8.7 c 0.7 -0.7 4.3 -1.2 8 -1.2 c 6.7 0.1 7.9 -0.1 9.5 -1.5 c 0.9 -0.8 2.4 -1.5 3.2 -1.5 c 0.8 0 2 -0.5 2.7 -1.2 c 1.6 -1.6 1.6 2.1 0 5.7 c -1 2.2 -0.9 2.8 1 4.6 c 2.6 2.4 2.7 3.3 0.6 5.4 C -188.5 593.4 -189 593.5 -191.5 592 Z M -183.4 573.5 c 0.3 -2.1 1.3 -4.4 2.2 -5.1 c 1.5 -1.2 1.5 -1.4 0.1 -2.5 c -0.9 -0.7 -2.9 -3.5 -4.4 -6.3 c -2.1 -3.8 -3.3 -5 -4.6 -4.6 c -1.1 0.3 -2.9 -0.7 -4.7 -2.8 c -1.6 -1.8 -3.4 -3 -3.9 -2.7 s -2.5 -0.7 -4.5 -2.3 c -1.9 -1.6 -3.8 -2.6 -4.1 -2.3 c -0.3 0.3 -1.3 0 -2.2 -0.7 s -1.8 -1 -2.1 -0.7 c -0.3 0.3 -3.3 -1.1 -6.7 -3 s -7.8 -4.4 -9.7 -5.4 c -4.3 -2.3 -9.8 -8.2 -11.6 -12.4 c -1.2 -2.9 -4.4 -6.6 -4.4 -5.1 c 0 0.4 -1.8 -0.3 -4.1 -1.5 l -4.1 -2.1 l -4.3 4.6 c -4.6 5 -6 5.7 -5.2 2.6 c 0.4 -1.6 -0.2 -2.3 -2.9 -3.4 c -2.5 -1 -3.4 -2.1 -3.4 -3.7 c 0 -1.3 -0.4 -2.9 -0.9 -3.7 c -0.5 -0.9 -0.5 -2.1 0.2 -3.2 c 0.8 -1.3 0.8 -2.5 -0.1 -4.4 c -1.1 -2.5 -1 -2.7 2.6 -4.2 c 2.1 -0.9 4.7 -2.5 6 -3.6 l 2.2 -2 l 3.5 2.1 l 3.5 2.1 v -2.3 c 0 -2 0.5 -2.3 2.9 -2.2 c 1.6 0.1 3.3 0.5 3.7 0.9 c 1.4 1.4 2.6 0.7 2.1 -1.2 c -0.3 -1.1 0.1 -2.5 1 -3.2 c 0.9 -0.7 1.2 -2.1 1 -3.1 c -0.4 -1.5 -0.1 -1.7 1.4 -1.3 c 1 0.3 2.9 0.1 4.1 -0.6 c 3.5 -1.9 8.6 -2 9.3 -0.2 c 0.4 1.1 1.6 1.4 4.3 1 c 3.7 -0.5 3.7 -0.5 3.7 3.1 c 0 2 -0.2 4.2 -0.2 4.8 c -0.2 1.2 -5.7 4.7 -7.7 4.7 c -1.8 0.1 -1.8 5.5 0 6.2 c 1.2 0.5 1.3 0.9 0.5 1.9 c -2.3 2.8 3.6 9.8 10.3 12.4 c 1.4 0.5 3.6 2.9 4.9 5.2 c 2.5 4.5 9.4 10.5 13.4 11.5 c 1.3 0.3 3.7 -0.1 5.4 -0.9 c 3.2 -1.6 3.8 -0.9 2 2.4 c -0.9 1.6 -0.7 1.9 0.9 1.9 c 1.1 0 5.1 1.1 8.9 2.5 s 7.6 2.5 8.5 2.5 c 2.4 0 6.7 4.4 6.7 6.9 c 0 2.6 -1.3 2.7 -3.6 0.4 c -1 -1 -3.4 -2.3 -5.5 -2.9 c -3.2 -1 -4 -0.9 -5.3 0.6 c -0.9 0.9 -1.5 3.4 -1.5 5.4 c 0 3 0.5 3.9 2.4 4.6 c 1.3 0.5 3 1.9 3.6 3.1 c 1 1.9 0.9 2.4 -0.6 3.5 c -1 0.7 -2.2 1.3 -2.7 1.3 s -0.6 1.2 -0.3 2.7 s 0.3 2.9 -0.1 3.2 s -1.3 1.5 -1.9 2.6 c -0.6 1.1 -1.8 2.1 -2.7 2.3 C -183.7 577.2 -183.9 576.6 -183.4 573.5 Z M -248.5 574.4 c -0.3 -1 -0.8 -4 -1.1 -6.7 c -0.3 -2.7 -1.2 -6.2 -2 -7.7 c -1.8 -3.5 -1.8 -3.9 0 -3.9 c 0.8 0 2.3 -1.1 3.4 -2.5 c 4.6 -5.8 8.2 -0.8 8.2 11.4 c 0 7.3 -0.1 7.9 -1.9 7.5 c -1.3 -0.3 -2.3 0.2 -3 1.6 C -246.4 576.6 -247.8 576.8 -248.5 574.4 Z"/>
<path title="" class="area excluded" id="_13" d="M -287.2 457.1 c -1.2 -0.6 -2.2 -1.5 -2.2 -1.9 s -0.9 -0.8 -2 -0.8 c -2.4 0 -13.7 -7.6 -14.5 -9.8 c -0.7 -1.7 3.5 -5.7 4.5 -4.2 c 1 1.6 4.5 1.4 7.2 -0.3 c 3.8 -2.5 8 -1.7 9.8 1.9 c 0.8 1.6 2 3.3 2.8 3.7 c 1.7 1 1.7 2.5 -0.2 6.1 c -0.8 1.6 -1.5 3.7 -1.5 4.8 C -283.4 458.7 -283.9 458.7 -287.2 457.1 Z"/>
<path title="" class="area excluded" id="_14" d="M -283 442.5 c -0.3 -4.5 -7 -6.3 -11.2 -3 c -1.6 1.3 -3 1.6 -4.4 1.1 c -1.1 -0.4 -1.4 -0.8 -0.7 -0.9 c 0.7 0 2.4 -0.8 3.7 -1.7 c 1.9 -1.3 2.2 -1.9 1.4 -3.2 c -2.3 -3.7 5.4 -16.6 10.5 -17.6 c 1.4 -0.3 3 -0.7 3.5 -1 c 1.6 -1 4.1 0.6 4.1 2.5 c 0 1 -0.6 3.1 -1.2 4.6 c -1 2.2 -1 2.8 0 3.1 c 2.1 0.7 1.4 2.8 -1.9 5.2 c -2.1 1.5 -2.9 2.9 -2.6 4.1 c 0.3 1 0.1 3.3 -0.3 5.2 C -282.6 442.6 -283 443.4 -283 442.5 Z"/>
<path title="" class="area" id="_15" d="M -251.4 479.8 c -2 -1.6 -2.8 -1.7 -7.2 -0.6 c -2.7 0.7 -5.6 1 -6.4 0.7 c -2 -0.8 -1.8 -4.4 0.5 -10.6 c 1.1 -2.9 2 -5.3 2 -5.5 c 0 -0.1 -3.1 -0.5 -6.9 -0.9 c -5.8 -0.6 -7.1 -1 -8.1 -3 c -0.7 -1.3 -0.9 -2.8 -0.5 -3.4 c 0.4 -0.6 -0.1 -1.4 -1 -1.7 c -1.3 -0.5 -1.5 -1.4 -1.1 -4.4 c 0.3 -2.2 0.2 -4.1 -0.4 -4.4 s -0.9 -3.2 -0.9 -6.3 c 0.1 -5 0.5 -6 3.3 -8.4 c 2.7 -2.3 2.9 -3 1.9 -4.7 c -0.9 -1.5 -0.9 -2.7 0 -5.1 c 0.9 -2.4 0.9 -3.6 -0.1 -5.1 c -2 -3.1 -1.5 -4 2.3 -4 c 2.5 0 3.5 0.4 3.5 1.6 c 0 1 0.6 1.4 1.4 1.1 s 1.7 0 1.9 0.6 c 0.3 0.7 0.4 -0.4 0.3 -2.3 c -0.2 -2.9 0.2 -3.6 2.1 -3.8 c 1.4 -0.2 2 -0.7 1.5 -1.5 c -0.4 -0.6 -0.9 -1.9 -1.1 -2.7 c -0.6 -3 -0.8 -3.5 -1.6 -4.9 c -0.7 -1.1 -0.3 -1.2 1.5 -0.6 c 1.3 0.4 3.5 0.9 4.9 1.1 c 5.8 0.7 7 1 7.6 1.6 c 0.4 0.4 2.5 0.4 4.8 0.1 s 6.4 0 9.1 0.6 c 2.8 0.6 6.1 1.2 7.4 1.4 c 3.3 0.4 4.7 3.1 3.2 6.4 c -1 2.1 -0.9 2.8 0.3 3.7 c 0.8 0.6 2.8 3.8 4.5 7.1 c 1.7 3.3 3.8 6.6 4.6 7.4 c 2.2 1.8 2.1 5.5 0 4.7 c -1 -0.4 -3 0.6 -5.3 2.7 c -2 1.8 -6 4.4 -8.8 5.8 c -5.6 2.6 -6.2 3.5 -3.2 4.4 c 1.1 0.3 2 1.3 2 2 c 0 2.3 7.9 9.2 11.3 9.9 l 3.1 0.6 l -4.5 3.8 c -4.7 4.1 -4.7 3.9 -1.3 10.2 c 0.2 0.3 -1.1 0.6 -2.9 0.8 c -1.8 0.1 -3.7 0.6 -4.3 1.1 s -4.2 1.6 -8 2.5 s -7.5 2 -8.1 2.6 C -248.8 481.3 -249.9 481 -251.4 479.8 Z"/>
<path title="" class="area excluded" id="_16" d="M -282.4 456 c 0 -2.2 0.2 -2.4 1.9 -1.3 c 2.1 1.3 1.7 3.8 -0.5 3.8 C -281.9 458.5 -282.4 457.5 -282.4 456 Z"/>
<path title="" class="area excluded" id="_17" d="M -268.4 496.9 c 0 -2.7 -3.7 -3.8 -6.5 -1.9 c -3.3 2.2 -4 1.3 -1.5 -1.9 c 1.1 -1.4 2 -3.3 2 -4.1 c 0 -2.6 7 -8.9 9.2 -8.3 c 1.1 0.3 4.1 0 6.7 -0.7 c 4.2 -1.1 5 -1 6.9 0.5 c 1.2 1 2.1 2.2 2.1 2.7 s 1.8 1.2 4 1.6 c 4.2 0.7 5.2 2.4 2.6 4.6 c -0.8 0.7 -1.2 1.9 -0.8 2.9 c 0.5 1.4 0.4 1.5 -0.9 0.4 c -0.9 -0.7 -2.3 -1 -3.2 -0.6 c -1 0.4 -1.6 0.1 -1.6 -0.6 c 0 -1 -0.3 -1 -1.5 0 c -0.8 0.7 -1.5 1.9 -1.5 2.6 c 0 1.1 -0.5 1.1 -2.5 0.2 c -1.4 -0.6 -2.5 -1.6 -2.5 -2.2 c 0 -0.6 -1.2 0.2 -2.8 1.6 C -263.8 497.1 -268.4 498.9 -268.4 496.9 Z"/>
<path title="" class="area excluded" id="_18" d="M -245.8 482.4 c -1.6 -1.6 -1.4 -1.8 3.2 -3 c 2.7 -0.7 7.2 -2 9.9 -2.8 c 2.8 -0.9 5.9 -1.7 7 -1.8 c 2.3 -0.3 2.4 -1.1 0.5 -5 c -1.4 -2.8 -1.3 -3 2.5 -6.2 c 2.5 -2.1 4.3 -3 4.9 -2.4 c 0.5 0.5 2.2 1 3.7 1 c 2.1 0 2.9 -0.6 3.4 -2.5 c 0.7 -2.6 0.9 -2.7 9.9 -2.9 c 3.5 -0.1 4 0.2 4.3 2.4 c 0.2 1.4 0.8 3 1.3 3.6 c 1.1 1.4 0.1 4.5 -1.5 4.3 c -3.4 -0.4 -3.9 0.1 -2.1 2.1 c 2.7 3 1 6.9 -4.2 9.5 c -2.3 1.1 -4.7 2.5 -5.5 3.1 c -0.7 0.6 -4.8 1.4 -9 1.7 c -6.2 0.5 -7.7 0.4 -8.2 -0.8 c -0.6 -1.6 -6.3 -1.6 -8.7 -0.1 C -236.8 484.4 -244 484.2 -245.8 482.4 Z"/>
<path title="" class="area excluded" id="_19" d="M -193.9 339.7 c 0.3 -0.9 0.6 -1.8 0.6 -2 s 1.1 -0.4 2.5 -0.4 c 2.2 0 2.4 0.2 1.5 2 C -190.6 341.7 -194.8 342.1 -193.9 339.7 Z M -178.6 340.6 c -0.4 -0.4 -0.7 -1.7 -0.7 -3 c 0 -2.5 -1 -3 -2.7 -1.2 c -1.6 1.6 -3.1 0.3 -4.4 -4.1 c -1.1 -3.7 -1 -4.1 1.7 -7 c 3.8 -4.1 9.8 -7.2 12.6 -6.5 c 1.2 0.3 3.1 -0.1 4.2 -0.9 c 1.4 -1.1 2.7 -1.2 4.7 -0.5 c 3.3 1.2 4.3 3.6 2.9 7.2 c -0.9 2.2 -0.6 3.3 1.5 6.4 c 1.4 2 2.5 4 2.5 4.3 s -1.8 1.4 -3.9 2.4 c -2.9 1.3 -5.1 1.6 -8.5 1.1 c -3.3 -0.5 -5.1 -0.3 -6.9 0.9 C -176.9 340.6 -178.3 341 -178.6 340.6 Z M -193.8 333.4 c 0.3 -0.5 1.3 -0.7 2.1 -0.4 c 2.1 0.8 1.8 1.3 -0.6 1.3 C -193.5 334.3 -194.2 333.9 -193.8 333.4 Z"/>
<path title="" class="area excluded" id="_20" d="M -193.8 364.1 c -0.4 -0.6 -0.3 -3.7 0 -6.9 c 0.5 -4.2 1.3 -6.5 2.9 -8 l 2.2 -2.1 l 4.4 2.9 c 3.4 2.2 5.2 2.8 7.7 2.4 c 3.4 -0.5 4.1 -1.6 2 -3 c -0.7 -0.4 -1.8 -2.2 -2.4 -4 c -1 -2.9 -0.9 -3.3 1.3 -4.8 c 1.8 -1.2 3.7 -1.4 7.2 -0.9 c 3.6 0.5 5.7 0.2 8.1 -1 c 3.2 -1.6 3.3 -1.6 5.7 0.6 c 1.3 1.3 3.5 4.3 4.9 6.7 l 2.5 4.4 l -3.9 3.5 c -4.5 4 -8.1 4.8 -15.8 3.2 c -4.8 -1 -5.5 -0.9 -9.5 1.4 c -2.4 1.4 -6.2 2.8 -8.5 3.2 c -2.3 0.4 -4.7 1.3 -5.4 2.1 C -191.7 365.4 -192.9 365.5 -193.8 364.1 Z"/>
<path title="" class="area excluded" id="_21" d="M -171.5 382.4 c -1.5 -0.8 -2.7 -1.8 -2.7 -2.3 s -1.1 -1.6 -2.4 -2.5 c -2.1 -1.4 -2.9 -1.4 -6.5 -0.1 c -3.8 1.3 -4.1 1.3 -4.1 -0.3 c 0 -1 -1.3 -3.7 -2.9 -6.1 l -2.9 -4.3 l 2.2 -1.7 c 1.2 -0.9 4 -2 6.2 -2.4 s 5.9 -1.8 8.3 -3.2 c 4 -2.3 4.6 -2.4 9.8 -1.3 c 3.1 0.6 6.6 0.9 7.8 0.6 c 3.4 -0.9 5 3.2 2.5 6.5 c -1 1.3 -1.9 4 -1.9 5.9 c -0.1 4 -2 6.9 -7.1 10.3 C -168.5 383.6 -169 383.6 -171.5 382.4 Z"/>
<path title="" class="area excluded" id="_22" d="M -185.1 443.8 c -0.7 -1.9 -1.8 -2.7 -3.8 -2.8 c -1.5 -0.1 -3.7 -0.2 -4.8 -0.2 c -1.1 -0.1 -1.9 -0.6 -1.8 -1.3 c 0.3 -1.6 -6.7 -2.9 -7.7 -1.4 c -0.9 1.4 -4.1 0.4 -4.1 -1.3 c 0 -0.7 -1.8 -1.8 -4 -2.6 c -2.2 -0.8 -4 -1.9 -4 -2.5 c 0 -0.7 -0.7 -1.8 -1.6 -2.5 c -0.9 -0.7 -3.1 -4.3 -5 -8 c -1.9 -3.7 -3.9 -6.9 -4.5 -7.1 c -0.8 -0.3 -0.8 -1.1 0.1 -3 c 1 -2.1 0.9 -3.2 -0.4 -5.6 c -1.4 -2.8 -1.4 -3.1 0.2 -4.5 c 0.9 -0.8 3.4 -2.2 5.4 -3 s 3.9 -2.3 4.2 -3.3 c 0.6 -1.9 9.3 -8.3 11.3 -8.3 c 0.6 0 1.4 0.7 1.7 1.4 c 0.9 2.4 6.6 4.9 8.2 3.5 c 0.8 -0.6 4.4 -1.8 8.1 -2.5 c 3.7 -0.8 8.6 -2.3 10.9 -3.4 s 4.9 -1.8 5.8 -1.5 s 2.5 2.9 3.8 5.8 c 1.2 2.8 2.9 5.7 3.8 6.3 c 1.4 1 1.4 1.6 0.2 5 c -1.3 3.6 -1.2 3.9 0.8 5.2 c 1.3 0.9 2.1 2.5 2.1 4.2 c 0 1.8 0.9 3.5 2.4 4.7 c 3.2 2.5 3.3 4.5 0.8 12.9 c -1.7 5.6 -2 7.7 -1.2 9.9 l 1 2.7 l -6.3 -0.7 c -4.8 -0.5 -6.7 -0.3 -8.3 0.8 c -1.1 0.8 -2.7 1.5 -3.6 1.5 s -1.9 0.8 -2.3 1.6 c -0.5 1.4 -0.9 1.4 -2.2 0.3 c -1.3 -1.1 -1.8 -1 -3 0.5 C -184 446.4 -184.1 446.3 -185.1 443.8 Z"/>
<path title="" class="area excluded" id="_23" d="M -219 459.2 c -1.3 -1.1 -3.1 -2 -4 -2 c -2 0 -9.1 -6.7 -9.1 -8.6 c 0 -0.7 -0.7 -1.7 -1.6 -2.2 c -1.3 -0.7 -0.7 -1.4 3.2 -3.7 c 2.7 -1.5 6.1 -4 7.6 -5.4 c 4.5 -4.1 11.1 -3.8 15.8 0.9 c 2 2 4.9 2.6 4.9 0.9 s 3.8 -1.1 4.9 0.7 c 0.5 0.9 2.2 1.8 3.8 1.9 c 1.6 0.1 3.9 0.2 5.1 0.3 c 2.9 0.2 3 3.6 0.2 5.1 c -1.1 0.6 -2 1.7 -2 2.5 c 0 0.8 -1 2 -2.2 2.6 c -1.2 0.7 -2.5 1.6 -2.8 2 c -0.3 0.5 -3.9 0.9 -8 1.1 c -7.1 0.3 -7.5 0.4 -8 2.8 C -211.8 461.4 -215.7 461.9 -219 459.2 Z"/>
<g title="" class="area excluded" id="_24">
	<path title="" class="area included   excluded" id="_25" d="M -194.1 388.4 c 0 -0.3 0.8 -1.4 1.8 -2.5 c 1.7 -1.9 1.7 -2 0 -1.4 c -1 0.4 -1.7 0.3 -1.7 -0.1 c 0.1 -1.6 2.6 -3.7 4.5 -3.9 c 1.1 -0.1 3.9 -0.9 6.2 -1.7 s 4.9 -1.3 5.8 -1 c 1.9 0.7 3.8 4.1 3 5.3 C -175.7 384.9 -194.1 389.8 -194.1 388.4 Z"/>
	<path title="" class="area included excluded" id="_26" d="M -161.5 405.6 c -1.6 -1.2 -1.7 -1.8 -0.8 -4 c 1.6 -3.5 1.5 -6.1 -0.3 -6.8 c -0.8 -0.3 -2.4 -2.7 -3.6 -5.4 l -2.1 -4.8 l 2.2 -1.5 c 5.7 -3.8 8.9 -8.1 8.9 -11.8 c 0 -2 0.9 -4.8 1.9 -6.1 c 1.4 -1.9 1.6 -2.9 0.9 -4.3 c -1.1 -2.1 1 -5.2 4.2 -6.2 c 1 -0.3 2.1 -1.4 2.4 -2.5 c 0.8 -2.7 6.5 -3.6 10.1 -1.7 c 2.6 1.4 3.2 1.3 6.6 -0.4 l 3.7 -1.9 l 1.5 2.3 c 0.8 1.2 2 3.5 2.7 5 c 1.4 3.2 10.4 8.7 14.1 8.7 c 2.6 0 4.8 1.7 4.8 3.6 c 0 0.7 -1.6 2.1 -3.6 3.3 l -3.6 2.1 l 2.2 3.9 l 2.2 3.9 l -2.7 3.5 c -1.9 2.5 -2.5 4.2 -2.1 6 c 0.6 2.3 0.3 2.5 -4.3 3 c -2.7 0.3 -7.8 1.8 -11.3 3.2 c -5.5 2.3 -7.3 2.5 -12.7 2 c -5.2 -0.5 -7.3 -0.3 -11.8 1.6 c -3.1 1.3 -6 3.2 -6.7 4.5 C -159.5 406.8 -159.8 406.9 -161.5 405.6 Z"/>
</g>
<path title="" class="area excluded" id="_27" d="M -107.7 457.5 c -0.8 -5.2 -1.9 -7.3 -4 -7.3 c -1.4 0 -4.8 -2.6 -10.5 -8.2 l -3.7 -3.7 l 2.3 -2.8 l 2.3 -2.8 l 3.5 1.9 c 1.9 1 4.8 3.7 6.3 5.8 s 4 4.9 5.6 6.2 l 2.8 2.2 l -1.5 6.3 c -0.8 3.5 -1.7 6.5 -2 6.8 C -106.7 462.1 -107.3 460.2 -107.7 457.5 Z"/>
<path title="" class="area excluded" id="_28" d="M -192.1 463.3 c -2.1 -0.6 -2.5 -1.3 -2.5 -4.7 c 0 -3.1 0.5 -4.2 2.3 -4.9 c 1.2 -0.5 2.5 -1.9 2.9 -3 c 0.8 -2.4 3.5 -4.6 4.7 -3.8 c 0.5 0.3 1.6 -0.3 2.4 -1.3 c 1 -1.3 1.6 -1.5 1.9 -0.7 c 0.5 1.4 3.3 1.7 3.3 0.4 c 0 -0.5 1.9 -1.9 4.2 -3.1 c 3.3 -1.7 5.1 -2 8.9 -1.5 l 4.7 0.6 l -1 3.9 c -0.9 3.6 -1.2 3.8 -3.4 2.9 c -2.9 -1.1 -9.3 1.7 -11.7 5.1 c -0.8 1.1 -3 2.9 -4.8 3.9 s -3.9 3 -4.7 4.4 C -186.2 464.2 -187.6 464.5 -192.1 463.3 Z"/>
<path title="" class="area excluded" id="_29" d="M -186.6 485 c -3 -1.1 -9.4 -5.4 -10.7 -7.1 c -0.4 -0.5 -0.2 -2 0.4 -3.4 c 0.8 -1.8 0.8 -2.9 -0.1 -4.3 c -1.6 -2.5 -1.5 -3 0.2 -2.3 c 0.8 0.3 1.9 -0.4 2.6 -1.6 c 0.9 -1.7 1.8 -2 4.3 -1.6 c 3.7 0.6 5.3 -0.2 5.8 -2.9 c 0.2 -1 2.1 -2.8 4.1 -3.9 c 2.1 -1.1 4.2 -2.8 4.8 -3.8 c 1.7 -3.2 8.4 -6 11.4 -4.9 c 1.4 0.5 2.6 0.7 2.6 0.4 c 0 -0.3 1.5 0.3 3.2 1.3 c 1.8 1 3.4 1.9 3.6 2 s -0.6 1.9 -1.9 4 s -2.4 4.9 -2.6 6.3 c -1 8.9 -1.7 10.8 -4.1 11.9 c -1.3 0.6 -3.3 1.1 -4.3 1.1 s -2.2 0.5 -2.6 1.1 c -0.8 1.2 -12.4 8.9 -13.3 8.8 C -183.3 486.1 -185 485.5 -186.6 485 Z"/>
<path title="" class="area excluded" id="_30" d="M -139.4 495.5 c -1 -0.3 -1.8 -1.3 -1.8 -2.3 s -0.5 -2.2 -1 -2.5 c -0.7 -0.5 -0.7 -1 0 -1.9 c 0.8 -1 0.4 -1.4 -1.7 -1.8 c -1.5 -0.3 -2.9 -0.1 -3.1 0.4 c -0.6 1.7 -5.7 1 -6.9 -1 c -0.7 -1.1 -2.7 -2.2 -4.5 -2.6 c -1.8 -0.4 -3.9 -1.6 -4.7 -2.7 c -0.7 -1.1 -2.3 -2.3 -3.5 -2.8 c -1.8 -0.7 -1.8 -0.9 -0.3 -0.9 c 1 0 3.1 -0.7 4.6 -1.5 c 2.8 -1.4 3.3 -2.9 4.5 -12.5 c 0.2 -1.4 1.5 -4.6 3 -7.2 c 2 -3.5 3.3 -4.8 5.1 -4.8 c 1.3 0 3.5 -0.4 4.9 -1 c 1.6 -0.6 2.7 -0.6 3.1 0 c 1 1.7 3.3 1.1 4 -1.1 c 0.4 -1.1 2.4 -2.9 4.6 -4 c 2.2 -1.1 3.9 -2.6 3.9 -3.4 c 0 -3.5 5.3 -2.4 6.5 1.4 c 0.3 1.1 1.5 2.2 2.5 2.5 c 1 0.3 2.9 1.6 4.2 2.9 c 1.3 1.3 3.2 2.5 4.3 2.7 c 1.5 0.3 2.2 1.8 3.1 6.1 c 1.3 6.7 1.3 6.6 5.1 7.3 c 2.1 0.4 3.5 0 5.1 -1.5 c 3 -2.8 4.9 -2.6 5.7 0.6 c 0.5 1.8 0.2 3.2 -0.9 4.2 c -1.1 1.1 -1.6 1.2 -1.6 0.3 c 0 -0.7 -0.4 -1 -0.8 -0.8 c -0.9 0.6 -0.8 3.7 0.4 10.4 l 0.7 4.3 l -2.6 -1 c -1.6 -0.6 -3.6 -0.6 -4.9 -0.1 c -1.2 0.5 -2.6 0.8 -2.9 0.7 c -1.4 -0.3 -8.8 4.9 -9.4 6.5 C -115.7 491.6 -134.1 496.9 -139.4 495.5 Z"/>
<path title="" class="area excluded" id="_31" d="M -153.1 520.7 c 0 -0.8 -1.1 -2.2 -2.4 -3.1 c -1.3 -0.9 -2.2 -2.2 -1.9 -2.9 c 0.3 -0.8 -0.4 -1.6 -1.8 -2 c -5.5 -1.5 -7.7 -2.8 -7.2 -4 c 0.3 -0.7 0 -1.6 -0.6 -2 s -0.8 -1.1 -0.5 -1.7 c 0.3 -0.6 -0.7 -2.3 -2.4 -4 c -1.7 -1.6 -3.3 -4.4 -3.7 -6.2 c -0.4 -1.8 -1.5 -4 -2.6 -5 c -2.9 -2.8 -2.3 -5.1 2.6 -8.5 c 3.7 -2.6 4.9 -3 6.9 -2.2 c 1.3 0.5 2.9 1.8 3.5 2.9 c 0.6 1.1 2.6 2.2 4.5 2.6 c 2 0.4 4 1.5 4.6 2.6 c 0.7 1.4 2.1 2 4.5 2 c 1.9 0 3.5 -0.4 3.5 -1 c 0 -0.5 0.7 -0.7 1.5 -0.4 c 0.8 0.3 1.3 0.8 1 1.1 c -0.3 0.3 0 1.1 0.6 1.9 s 1.1 3.1 1.1 5.3 c 0 3.5 0.4 4.2 2.9 5.5 c 3.3 1.7 3.4 2 1.4 5.5 c -0.8 1.4 -1.4 3.9 -1.5 5.5 c 0 2.7 -0.7 3.3 -5.3 5.4 c -2.9 1.3 -6 2.8 -7 3.3 C -152.6 522 -153.1 521.8 -153.1 520.7 Z"/>
<path title="" class="area excluded" id="_32" d="M -217.2 495.8 c -0.1 -0.6 0 -1.6 0.2 -2.2 c 0.2 -0.5 0.3 -2.8 0.4 -5 c 0.1 -3.8 0.2 -4 3.6 -4.3 c 1.9 -0.2 4.2 -0.9 5 -1.6 c 2.7 -2.3 9.2 -4.8 10.1 -3.9 c 1.3 1.3 -0.1 5.2 -2.2 5.9 c -1 0.3 -1.9 1.4 -1.9 2.4 s -0.5 3.2 -1.1 4.9 c -0.8 2.3 -1.6 3 -3.1 2.7 c -1.1 -0.2 -2.3 -0.6 -2.6 -0.9 s -1.2 0.1 -2.1 0.8 C -213.2 496.4 -217.1 497.2 -217.2 495.8 Z"/>
<path title="" class="area excluded" id="_33" d="M -177.6 519.6 l -3 -1.4 l 3 0.6 c 3.1 0.6 4.1 1.1 3.4 1.8 C -174.4 520.8 -176 520.4 -177.6 519.6 Z M -194.2 513.5 c -0.5 -0.6 -2.3 -1.7 -4 -2.4 c -2.7 -1.1 -2.9 -1.4 -1.5 -2.5 c 1.4 -1 1.3 -1.3 -0.8 -2.3 c -1.3 -0.6 -3.4 -3 -4.5 -5.2 c -1.4 -2.8 -2.6 -4 -3.8 -3.7 c -1.8 0.4 -1.8 0.9 -0.6 4.3 c 0.7 1.7 0.6 1.8 -0.8 0.7 c -1.2 -1 -1.8 -1 -2.3 -0.1 c -0.5 0.8 -1.2 0.4 -2.1 -1.2 c -1.8 -3.2 -1.7 -3.9 0.5 -3.9 c 1 0 2.4 -0.7 3.1 -1.5 c 0.7 -0.8 1.6 -1.2 2.1 -0.9 c 0.5 0.3 2 0.8 3.3 1 c 2.1 0.4 2.5 -0.1 3.7 -4.3 c 0.7 -2.6 2.3 -5.7 3.6 -6.9 c 1.3 -1.2 2.3 -2.7 2.3 -3.3 s 1.5 0 3.2 1.3 c 4.6 3.4 9.5 4.9 11.8 3.6 c 1.5 -0.8 1.9 -0.7 1.9 0.5 c 0 0.8 0.9 2.4 2 3.5 c 2 2 2.7 5 1.2 5 c -0.4 0 -1.2 -0.4 -1.8 -1 c -0.7 -0.7 -2.9 -0.5 -6.7 0.5 c -3.1 0.8 -6.3 1.2 -7.1 0.9 c -0.8 -0.3 -2.1 0.2 -3 1.1 c -0.9 0.9 -2.2 1.5 -2.9 1.4 c -4.5 -0.6 -4.6 2.6 -0.2 6.9 c 1.3 1.3 2.4 2.7 2.4 3.2 s 1 1.2 2.2 1.6 s 2.6 1.2 3 1.8 c 0.4 0.6 2.2 1.6 4 2.2 c 3.2 1.1 3.2 1.1 -2 1 C -190.9 514.7 -193.7 514.2 -194.2 513.5 Z"/>
<path title="" class="area excluded" id="_34" d="M -179.3 517.5 c -1.5 -0.2 -2.9 -1.2 -3.1 -2.2 c -0.3 -1 -1.8 -2.1 -3.5 -2.5 c -1.7 -0.4 -3.3 -1.3 -3.6 -2.1 c -0.3 -0.8 -1.1 -1.4 -1.7 -1.4 c -1.7 0 -7.7 -6.4 -8.1 -8.6 c -0.2 -1.4 0.2 -1.8 1.5 -1.6 c 1 0.2 2.7 -0.4 3.7 -1.3 c 1 -0.9 2.3 -1.4 2.8 -1.1 c 0.5 0.3 3.6 -0.1 6.7 -0.9 c 4.1 -1.1 6.1 -1.2 7 -0.4 c 0.7 0.6 1.8 0.8 2.3 0.4 c 0.6 -0.4 1 0 1 0.8 c 0 0.8 1.4 2.9 3.1 4.5 c 1.7 1.6 2.8 3.5 2.5 4 s -0.2 1.2 0.4 1.5 c 0.5 0.3 -0.1 1.7 -1.4 3.1 c -1.3 1.4 -2.9 3.8 -3.6 5.5 c -0.7 1.6 -1.7 2.9 -2.4 2.8 C -176.1 517.9 -177.8 517.7 -179.3 517.5 Z"/>
<path title="" class="area excluded" id="_35" d="M -166 523.7 c -1.3 -1.4 -3.4 -2.5 -4.7 -2.5 c -3.4 0 -3.6 -1.9 -0.7 -7.2 c 2 -3.7 2.8 -4.5 3.9 -3.6 c 0.7 0.6 3 1.7 5.1 2.4 s 3.5 1.5 3.3 1.7 s 0.1 1.2 0.9 2.1 c 1.6 1.9 0.2 2.3 -1.6 0.5 c -1.5 -1.5 -2.3 0.3 -2.5 5.5 c -0.1 2 -0.4 3.6 -0.7 3.6 S -164.7 525 -166 523.7 Z"/>
<path title="" class="area excluded" id="_36" d="M -151.1 548.3 c 0 -0.6 -1.2 -1.6 -2.8 -2.3 c -1.5 -0.7 -2.8 -1.9 -2.8 -2.6 c 0 -0.7 -0.5 -1.6 -1.1 -2 c -0.6 -0.4 -1.5 -3.6 -1.9 -7.2 c -0.4 -3.6 -1.1 -7.3 -1.6 -8.2 c -0.5 -1 -0.5 -3.3 0 -5.5 c 0.5 -2.1 0.9 -3.2 1 -2.5 c 0.1 0.8 1.1 1.2 2.7 1 c 2.4 -0.3 2.8 0.2 4.4 5.1 c 1 3.1 3.1 6.6 4.9 8.3 c 2.7 2.5 2.9 3.2 2 5 c -0.6 1.2 -1.2 4.2 -1.3 6.7 c -0.1 3.4 -0.6 4.6 -1.9 4.9 C -150.4 549.2 -151.1 548.9 -151.1 548.3 Z"/>
<path title="" class="area excluded" id="_37" d="M -148 531.3 c -2.7 -2.5 -5.1 -7.7 -4 -8.5 c 0.2 -0.2 3.5 -1.8 7.3 -3.5 c 6.9 -3.2 6.9 -3.2 10.8 -1.5 c 2.1 1 3.8 2.1 3.8 2.5 c 0 0.4 0.2 1.4 0.5 2.1 c 0.3 0.9 -1 2.1 -3.9 3.5 c -2.4 1.2 -4.7 3 -5 4.1 c -0.5 1.5 -4.3 4.2 -6 4.2 C -144.7 534.2 -146.3 532.9 -148 531.3 Z"/>
<path title="" class="area excluded" id="_38" d="M -129.1 520.6 c 0 -0.8 -2 -2.5 -4.5 -3.7 c -5 -2.4 -5.7 -4.6 -2.9 -9.9 c 1.7 -3.3 0.9 -5.3 -2.7 -6.4 c -1.1 -0.3 -1.9 -1.4 -1.9 -2.3 c 0 -1.4 1.1 -1.7 6.2 -1.9 c 8.1 -0.3 17.3 -3.9 22.5 -8.9 c 4.7 -4.6 11 -6.7 15.4 -5.2 c 2.7 0.9 4.2 4.8 1.9 4.8 c -1.9 0 -3.2 3.9 -2 6 c 0.8 1.4 0.8 2.6 0 4 c -0.6 1.2 -0.7 2 -0.1 2 c 2 0 -0.3 4.1 -4.5 8 c -3.2 3 -4.3 4.6 -3.8 6 c 0.9 2.9 -2.8 4.3 -8.8 3.6 c -4.2 -0.6 -5.3 -0.3 -7.1 1.3 c -1.2 1.1 -3.4 2.5 -4.9 3 C -128.6 521.9 -129.1 521.8 -129.1 520.6 Z"/>
<g title="" class="area" id="_39">
	<path title="" class="area included excluded" id="_40" d="M -104.9 463.5 c -0.7 -0.3 -1 -1 -0.6 -1.5 c 0.3 -0.5 1.2 -3.7 2 -7 l 1.4 -6 l -5 -5 c -2.7 -2.7 -5 -5.4 -5 -5.9 s -1.8 -2.1 -3.9 -3.5 c -4.3 -2.8 -7.5 -2.6 -8.6 0.5 c -0.3 1 -1.7 2.6 -3.1 3.5 c -1.4 0.9 -2.5 2.2 -2.5 3 c 0 0.8 -1 1.7 -2.2 2.1 c -1.2 0.4 -3.5 2.1 -5.1 3.8 c -2 2.2 -3.1 2.7 -3.6 1.8 c -0.5 -0.8 -1.5 -0.9 -3.2 -0.3 c -4.8 1.8 -12.3 2.2 -14.2 0.8 c -2 -1.5 -1.5 -6.2 0.9 -8.2 c 1.1 -0.9 1.2 -1.8 0.4 -3.8 c -0.8 -2.1 -0.6 -4.3 1.2 -9.9 c 2.6 -8.5 2.5 -10.5 -0.7 -13 c -5 -3.8 -2.5 -10.6 5.1 -13.7 c 4.3 -1.8 6.4 -2 11.6 -1.5 c 5.4 0.6 7.2 0.3 12.6 -1.9 c 3.4 -1.4 8.6 -2.9 11.5 -3.4 c 5 -0.7 5.2 -0.9 5 -3.6 c -0.2 -3.1 3 -8.6 5.1 -8.6 c 0.7 0 3.9 -1.6 7.1 -3.5 c 6.5 -3.9 8.8 -3.8 11 0.4 c 2 3.8 5.6 6 8.8 5.4 c 2.1 -0.4 3.3 0.2 5.7 2.7 c 2.7 2.9 3.4 3.2 7.1 2.6 c 2.2 -0.4 5.4 -1.3 7.1 -2.2 c 2.7 -1.4 3.2 -1.4 5.4 0 c 2 1.3 3.2 1.4 7.5 0.5 c 7.9 -1.7 8 -1.6 8 11.1 v 11.1 l -3 2.6 c -1.7 1.4 -3.6 3.7 -4.4 5.2 c -1.9 3.7 -6.2 8.1 -7.9 8.1 c -0.8 0 -1.7 1.2 -2.1 2.7 c -0.7 2.6 -5.9 8.3 -7.7 8.3 c -0.5 0 -0.9 0.5 -0.9 1 s -0.9 1 -2 1 s -2 0.7 -2 1.6 c 0 1.1 -0.6 1.4 -2 0.9 c -1.1 -0.4 -2 -0.2 -2 0.4 c 0 1.7 -3.7 3.1 -6 2.3 c -1.9 -0.7 -2 -0.9 -0.6 -2.1 c 2.2 -1.9 2 -3.4 -0.4 -2.1 c -1.6 0.8 -2.2 0.7 -3 -1 c -0.6 -1.1 -1.5 -2 -2.1 -2 s -0.6 0.7 0.1 2 c 0.6 1.1 0.8 2.1 0.5 2.1 c -0.3 0.1 -0.9 0.2 -1.4 0.2 c -1.9 0.3 -5.1 5.6 -5.1 8.6 c 0 1.9 -0.6 3.4 -1.6 3.7 c -0.9 0.3 -1.3 1.2 -1.1 1.9 c 0.6 1.5 -7.5 8.5 -9.6 8.4 C -103 464.1 -104.2 463.8 -104.9 463.5 Z"/>
	<path title="" class="area included excluded active" id="_41" d="M -61.6 456.9 c -0.2 -0.7 -0.6 -2.1 -0.7 -3.2 c -0.3 -1.7 -1.1 -2 -5.1 -1.9 c -4.4 0.1 -4.6 0 -3.2 -1.6 c 0.8 -0.9 1.5 -2.1 1.5 -2.6 s 0.9 -1.5 2 -2.2 c 1.1 -0.7 1.8 -1.7 1.5 -2.2 s 0.8 -1.6 2.4 -2.5 c 3.5 -1.8 4.4 -1.9 3.6 -0.5 c -0.3 0.5 -0.1 1 0.5 1 s 2.3 0.9 3.7 2 l 2.5 2 l 2.3 -2.5 c 2.6 -2.8 4.9 -3.2 5.7 -1.1 c 0.5 1.3 -1.4 2.8 -3.8 3 c -0.5 0 -1.6 1.4 -2.3 2.9 s -2 3.1 -2.8 3.4 s -1.4 1.3 -1.4 2.2 C -55.2 456.9 -60.6 460.1 -61.6 456.9 Z"/>
</g>
<path title="" class="area excluded" id="_42" d="M -106.6 589.2 c -0.9 -1.5 -0.4 -1.9 3.3 -3 c 2 -0.6 3.3 -0.5 3.7 0.1 c 0.4 0.6 1 0.6 1.8 0 c 0.6 -0.5 3.9 -1.3 7.2 -1.7 c 3.3 -0.4 6.8 -1.1 7.8 -1.6 c 1.1 -0.6 1.8 -0.5 1.8 0.1 c 0 0.6 -2.7 2.4 -6.1 4.1 c -4.8 2.4 -6.4 2.8 -7.5 1.9 c -1.3 -1.1 -6.2 -0.7 -9.9 0.7 C -105.3 590.1 -106.2 589.8 -106.6 589.2 Z M -122.2 575.9 c -1.5 -1.9 -1.6 -2 -3.3 -0.2 c -1.5 1.5 -1.9 1.6 -2.7 0.4 c -0.5 -0.8 -0.9 -2.1 -0.9 -3 c 0 -0.9 -1.4 -2.5 -3 -3.8 c -1.7 -1.2 -2.7 -2.8 -2.4 -3.6 c 0.6 -1.6 10.9 -5.1 12.4 -4.1 c 0.6 0.3 1.7 0.2 2.6 -0.2 c 1.3 -0.7 1.3 -1.1 0.3 -2 c -2.1 -1.8 -6.1 -1.8 -9.4 0 c -1.7 0.9 -4.2 1.6 -5.5 1.5 c -2.9 -0.2 -8.1 -3.8 -5.5 -3.8 c 0.9 0 1.6 -0.5 1.6 -1 c 0 -1.1 -0.2 -1.1 -3.7 -1.5 c -4.3 -0.5 -5.3 -2.2 -4.9 -9 c 0.5 -7.4 1.6 -10 5.5 -12 c 1.6 -0.8 3.2 -2.3 3.5 -3.3 s 2.6 -2.8 5.1 -4 c 2.5 -1.2 4.5 -2.6 4.5 -3.2 c 0 -0.6 0.6 -1 1.4 -1 s 2.8 -1.1 4.4 -2.5 c 2.7 -2.3 3.6 -2.5 8.1 -1.9 c 3.8 0.5 5.6 0.3 7.5 -0.9 c 2.4 -1.5 2.5 -1.5 3.5 1.5 c 0.6 1.7 1.1 3.3 1.1 3.5 c 0 0.2 -2.5 0.4 -5.5 0.4 s -5.5 0.5 -5.5 1 s -0.7 1 -1.5 1 s -2.3 0.9 -3.2 2 c -0.9 1.1 -2.3 2 -3 2 c -1 0 -1.1 0.5 -0.2 2 c 0.6 1.1 2.1 2 3.3 2 c 1.7 0 1.2 0.5 -1.8 1.9 c -3.4 1.6 -4.4 1.6 -6.6 0.5 c -3.2 -1.6 -3.9 -1 -3.9 3.2 c 0 6.2 7 12.3 16.3 14.1 c 4.5 0.9 4.6 2.7 0.1 1.9 c -2.1 -0.4 -5.9 -0.9 -8.4 -1.1 c -4.8 -0.5 -3.8 0 5 2.6 c 4.5 1.3 7 3.3 7 5.6 c 0 0.9 -0.7 1 -2.9 0.1 c -2.3 -0.9 -3.2 -0.8 -4.5 0.5 c -1.5 1.5 -1.4 1.8 0.9 3.6 c 2.8 2.2 1.7 3.9 -1.4 2.2 c -4 -2.1 -4.2 -0.5 -0.6 3.8 c 2.8 3.3 3.3 5.7 1 4.8 c -0.8 -0.3 -1.8 0 -2.2 0.8 C -120.4 577.7 -120.9 577.5 -122.2 575.9 Z M -82.6 573.1 c -0.8 -1.3 1.3 -4 3 -4 c 1.8 0 2.6 2.5 1.2 3.9 C -79.8 574.5 -81.8 574.5 -82.6 573.1 Z"/>
<path title="" class="area" id="_43" d="M -389.8 435.2 c -1.4 -0.3 -2 -0.9 -1.6 -1.9 c 0.3 -0.8 0 -1.4 -0.6 -1.4 s -0.9 -0.5 -0.5 -1.1 c 0.5 -0.7 0 -0.9 -1.4 -0.4 c -1.2 0.4 -2.1 0.2 -2.1 -0.3 s 1.2 -1.3 2.8 -1.7 l 2.8 -0.8 l -2.5 -0.8 c -1.4 -0.4 -1.8 -0.8 -0.8 -0.9 c 1 -0.1 2.2 -1.8 3.2 -4.8 c 1.9 -5.5 2 -8 0.5 -8.5 c -0.8 -0.3 -0.8 -1 0.1 -2.7 c 0.8 -1.5 0.9 -2.6 0.3 -3 c -0.6 -0.4 -0.6 -1.5 -0.1 -2.9 c 0.9 -2.4 2.4 -2.9 3.4 -1.2 c 1 1.6 4.4 1.1 6.6 -0.9 c 1.8 -1.7 1.9 -2 0.4 -2.8 c -2.3 -1.3 0 -3.9 4.2 -4.8 c 4.1 -0.8 4.3 0.8 0.6 4.6 c -2.5 2.7 -2.6 2.9 -1 5.3 c 1.9 2.9 3.4 3.3 4.3 1 s 1.8 -1.8 3.7 2 c 2.1 4.5 2.2 14.6 0.2 18.9 c -1.4 3 -1.8 3.2 -6 3 c -2.5 -0.1 -4.3 0.1 -3.9 0.7 c 0.3 0.5 -0.6 1.2 -2.1 1.6 c -1.5 0.4 -3.5 1.5 -4.5 2.5 s -2.2 1.8 -2.6 1.7 C -387.2 435.7 -388.6 435.5 -389.8 435.2 Z"/>
</svg>